<?xml version="1.0"?>
<svg xmlns="http://www.w3.org/2000/svg" xmlns:xlink="http://www.w3.org/1999/xlink" version="1.1" id="Capa_1" x="0px" y="0px" viewBox="0 0 512 512" style="enable-background:new 0 0 512 512;" xml:space="preserve" width="512px" height="512px"><g><g>
	<g>
		<path d="M252.79,0.002c-123.804,0-230.025,90.603-252.523,209.203C-1.484,218.435,5.602,227,15.004,227h236.998    c8.284,0,15-6.716,15-15v-43.892L378.7,257l-111.698,88.892V302c0-8.284-6.716-15-15-15H15.004    c-9.395,0-16.489,8.558-14.737,17.795c22.489,118.55,128.714,207.203,252.523,207.203c68.812,0,133.906-27.323,182.29-74.561    C484.683,389.008,512,324.928,512,257C512,116.183,393.682,0.002,252.79,0.002z M252.79,481.998    c-102.936,0-192.226-68.377-218.912-164.999h203.124v60c0,12.547,14.542,19.536,24.34,11.737l150.787-119.999    c7.54-6,7.541-17.473,0-23.474L261.342,125.264c-9.815-7.812-24.34-0.79-24.34,11.737v60H33.899    c26.821-96.375,117.84-166.999,218.892-166.999c124.245,0,229.21,103.952,229.21,226.998    C482,381.065,379.177,481.998,252.79,481.998z" data-original="#000000" class="active-path" data-old_color="#000000" fill="#402F2F"/>
	</g>
</g></g> </svg>
