<?xml version="1.0"?>
<svg xmlns="http://www.w3.org/2000/svg" xmlns:xlink="http://www.w3.org/1999/xlink" version="1.1" id="Capa_1" x="0px" y="0px" viewBox="0 0 368 368" style="enable-background:new 0 0 368 368;" xml:space="preserve" width="512px" height="512px"><g><g>
	<g>
		<path d="M315.873,97.008c-2.528-1.416-5.648-1.328-8.12,0.208l-51.752,32.352v-25.56c0-4.416-3.576-8-8-8h-8.896    C249.513,85.832,256.001,71.664,256.001,56c0-30.88-25.128-56-56-56c-20.384,0-38.2,10.984-48,27.304    c-9.8-16.32-27.616-27.304-48-27.304c-30.88,0-56,25.12-56,56c0,15.664,6.488,29.832,16.888,40.008h-8.888c-4.416,0-8,3.584-8,8    V232c0,4.416,3.584,8,8,8h56v37.2l-62.248,77.808c-2.76,3.448-2.2,8.488,1.248,11.24c3.44,2.752,8.488,2.208,11.24-1.248l61.6-77    h20.16v72c0,4.416,3.584,8,8,8s8-3.584,8-8v-72h20.16l61.592,77c1.584,1.976,3.904,3,6.256,3c1.752,0,3.512-0.576,4.992-1.752    c3.448-2.76,4.008-7.792,1.248-11.24L192.001,277.2V240h56c4.424,0,8-3.584,8-8v-25.544l51.76,32.336    c1.296,0.8,2.76,1.208,4.24,1.208c1.336,0,2.672-0.336,3.872-1c2.552-1.416,4.128-4.096,4.128-7V104.008    C320.001,101.104,318.425,98.424,315.873,97.008z M200.001,16c22.056,0,40,17.944,40,40c0,22.056-17.944,40-40,40    c-22.056,0-40-17.944-40-40C160.001,33.944,177.945,16,200.001,16z M64.001,56c0-22.056,17.944-40,40-40c22.056,0,40,17.944,40,40    c0,22.056-17.944,40-40,40C81.945,96,64.001,78.056,64.001,56z M176.001,272h-48v-32h48V272z M240.001,144v48.016V224h-56h-64h-56    V112.008h40c0.016,0,0.032-0.008,0.048-0.008c20.36-0.016,38.16-10.992,47.952-27.304c9.792,16.312,27.584,27.28,47.952,27.304    c0.016,0,0.032,0.008,0.048,0.008h40V144z M304.001,217.568l-48-29.984v-39.152l48-29.992V217.568z" data-original="#000000" class="active-path" data-old_color="#000000" fill="#666666"/>
	</g>
</g></g> </svg>
